<svg xmlns="http://www.w3.org/2000/svg" viewBox="0 0 164 34" fill="none">
  <g clip-path="url(#clip0_1_481)">
    <path
      d="M43 7.00783H52.332C53.8528 6.95084 55.3692 7.20539 56.788 7.75583C57.8835 8.23121 58.8451 8.96891 59.588 9.90383C60.3399 10.8689 60.8846 11.9787 61.188 13.1638C61.5266 14.4482 61.6948 15.7716 61.688 17.0998C61.688 19.2705 61.4413 20.9558 60.948 22.1558C60.4945 23.2957 59.7968 24.3225 58.904 25.1638C58.106 25.9199 57.1351 26.4693 56.076 26.7638C54.8572 27.1099 53.5988 27.2967 52.332 27.3198H43V7.00783ZM49.28 11.6078V22.7158H50.82C52.132 22.7158 53.0653 22.5705 53.62 22.2798C54.2167 21.9403 54.6775 21.4046 54.924 20.7638C55.236 20.0358 55.396 18.8598 55.396 17.2318C55.396 15.0798 55.044 13.6132 54.34 12.8318C53.64 12.0318 52.472 11.6318 50.848 11.6318L49.28 11.6078Z"
      fill="#FFCE21"/>
    <path
      d="M63.936 20.0118C63.9047 18.9785 64.0911 17.9502 64.4832 16.9937C64.8753 16.0371 65.4644 15.1738 66.212 14.4598C67.7267 13.0038 69.7733 12.2758 72.352 12.2758C75.3013 12.2758 77.5293 13.1305 79.036 14.8398C80.2578 16.2482 80.9059 18.0642 80.852 19.9278C80.8874 20.9619 80.7053 21.9919 80.3174 22.951C79.9294 23.9102 79.3443 24.7772 78.6 25.4958C77.096 26.9438 75.0187 27.6678 72.368 27.6678C70 27.6678 68.0867 27.0665 66.628 25.8638C65.7576 25.1628 65.0616 24.2695 64.5945 23.2541C64.1274 22.2388 63.902 21.129 63.936 20.0118ZM69.592 20.0118C69.592 21.3238 69.8587 22.2945 70.392 22.9238C70.6376 23.2151 70.9438 23.4492 71.2892 23.6098C71.6347 23.7704 72.011 23.8536 72.392 23.8536C72.773 23.8536 73.1493 23.7704 73.4948 23.6098C73.8402 23.4492 74.1464 23.2151 74.392 22.9238C74.9253 22.3052 75.192 21.3118 75.192 19.9438C75.192 18.6678 74.932 17.7158 74.392 17.0958C74.159 16.801 73.8615 16.5633 73.5225 16.4011C73.1835 16.2389 72.8118 16.1564 72.436 16.1598C72.0468 16.1521 71.661 16.2335 71.3081 16.3978C70.9552 16.5622 70.6446 16.805 70.4 17.1078C69.8613 17.7398 69.592 18.7038 69.592 19.9998V20.0118Z"
      fill="#FFCE21"/>
    <path
      d="M83.6001 32.9359V12.6079H88.8801V14.7839C89.4197 14.041 90.0991 13.4106 90.8801 12.9279C91.7227 12.4876 92.6615 12.2636 93.6121 12.2759C94.5024 12.2365 95.3881 12.423 96.1868 12.8182C96.9856 13.2134 97.6713 13.8043 98.1801 14.5359C99.2949 16.1851 99.8553 18.1466 99.7801 20.1359C99.7801 22.5839 99.1934 24.4505 98.0201 25.7359C97.4637 26.3632 96.777 26.8614 96.008 27.1958C95.2391 27.5302 94.4064 27.6927 93.5681 27.6718C92.7533 27.6818 91.9445 27.5309 91.1881 27.2279C90.4634 26.9259 89.8096 26.4763 89.2681 25.9079V32.9359H83.6001ZM89.2561 20.0118C89.2561 21.1772 89.5014 22.0412 89.9921 22.6039C90.2179 22.8755 90.502 23.0928 90.8233 23.2396C91.1447 23.3864 91.4949 23.459 91.8481 23.4519C92.1666 23.4553 92.4815 23.3848 92.7681 23.246C93.0548 23.1072 93.3053 22.9038 93.5001 22.6519C93.9454 22.1185 94.1668 21.2012 94.1641 19.8999C94.1641 18.7079 93.9334 17.8319 93.4721 17.2719C93.274 17.0108 93.0182 16.7991 92.7246 16.6534C92.4311 16.5077 92.1078 16.4318 91.7801 16.4318C91.4348 16.4271 91.0929 16.5009 90.7803 16.6479C90.4678 16.7948 90.1927 17.0109 89.9761 17.2799C89.4961 17.8372 89.2561 18.7478 89.2561 20.0118Z"
      fill="#FFCE21"/>
    <path
      d="M109.32 7.00784V12.6078H112.428V16.7398H109.32V21.9638C109.285 22.3881 109.347 22.8147 109.5 23.2118C109.603 23.3719 109.748 23.5004 109.92 23.583C110.092 23.6656 110.283 23.6991 110.472 23.6798C111.068 23.6448 111.655 23.5235 112.216 23.3198L112.616 27.2158C111.334 27.5102 110.023 27.6644 108.708 27.6758C107.305 27.6758 106.269 27.4958 105.6 27.1358C104.934 26.7735 104.413 26.193 104.124 25.4918C103.804 24.7598 103.648 23.5718 103.648 21.9278V16.7278H101.568V12.6078H103.648V9.90384L109.32 7.00784Z"
      fill="#FFCE21"/>
    <path d="M115.324 7.00784H120.968V10.8478H115.324V7.00784ZM115.324 12.6078H120.968V27.3358H115.324V12.6078Z"
          fill="#FFCE21"/>
    <path
      d="M123.872 20.0118C123.84 18.9788 124.026 17.9507 124.417 16.9942C124.809 16.0376 125.397 15.1742 126.144 14.4598C127.661 13.0038 129.709 12.2758 132.288 12.2758C135.237 12.2758 137.465 13.1305 138.972 14.8398C140.192 16.2492 140.84 18.0645 140.788 19.9278C140.823 20.9619 140.641 21.9919 140.253 22.951C139.865 23.9102 139.28 24.7772 138.536 25.4958C137.032 26.9438 134.953 27.6678 132.3 27.6678C129.937 27.6678 128.024 27.0665 126.56 25.8638C125.691 25.1619 124.996 24.2684 124.53 23.2532C124.063 22.2379 123.838 21.1285 123.872 20.0118ZM129.528 20.0118C129.528 21.3238 129.795 22.2945 130.328 22.9238C130.574 23.2151 130.88 23.4492 131.225 23.6098C131.571 23.7704 131.947 23.8536 132.328 23.8536C132.709 23.8536 133.085 23.7704 133.431 23.6098C133.776 23.4492 134.082 23.2151 134.328 22.9238C134.861 22.3052 135.128 21.3118 135.128 19.9438C135.128 18.6678 134.864 17.7158 134.328 17.0958C134.095 16.801 133.798 16.5633 133.459 16.4011C133.12 16.2389 132.748 16.1564 132.372 16.1598C131.982 16.1521 131.596 16.2335 131.242 16.3978C130.889 16.5621 130.577 16.8049 130.332 17.1078C129.801 17.7398 129.536 18.7038 129.536 19.9998L129.528 20.0118Z"
      fill="#FFCE21"/>
    <path
      d="M143.512 12.6079H148.768V15.0079C149.416 14.1507 150.233 13.4359 151.168 12.9079C152.082 12.4605 153.091 12.2435 154.108 12.2759C155.671 12.2759 156.893 12.7399 157.776 13.6679C158.644 14.5999 159.072 16.0319 159.072 17.9639V27.3239H153.412V19.2359C153.412 18.3119 153.244 17.6359 152.9 17.2759C152.717 17.0801 152.493 16.9271 152.244 16.8276C151.995 16.728 151.728 16.6844 151.46 16.6999C151.141 16.6905 150.825 16.7558 150.536 16.8905C150.247 17.0252 149.994 17.2257 149.796 17.4759C149.368 17.9919 149.156 18.9239 149.156 20.2759V27.3359H143.512V12.6079Z"
      fill="#FFCE21"/>
    <path
      d="M0.023992 8.712C0.023992 6.648 -0.040008 4.632 0.043992 2.62C0.111992 1.056 1.23199 0.0479952 2.79999 0.0399952C7.59999 0.0199952 12.344 -0.0480048 17.108 0.0599952C25.188 0.251995 32.108 6.928 32.756 14.86C33.1243 18.9303 31.9619 22.9917 29.4958 26.2507C27.0297 29.5097 23.4372 31.7322 19.42 32.484C18.2402 32.6879 17.0453 32.7923 15.848 32.796C11.636 32.832 7.44799 32.796 3.21999 32.796C1.11199 32.796 0.019992 31.728 0.019992 29.628C-7.96013e-06 24.8 -7.95978e-06 19.932 -7.95978e-06 15.084C-0.0205923 14.3195 0.133365 13.5603 0.450164 12.8642C0.766964 12.1681 1.23827 11.5534 1.82827 11.0667C2.41827 10.58 3.11143 10.2343 3.85509 10.0557C4.59875 9.87709 5.37334 9.87035 6.11999 10.036C6.77961 10.1231 7.40128 10.3945 7.91357 10.819C8.42585 11.2435 8.80796 11.804 9.01599 12.436C9.43834 13.764 9.6897 15.1404 9.76399 16.532C10.032 21.6 15.272 24.596 19.6 22.132C23.268 20.036 24 15.016 21.128 11.66C19.068 9.25999 16.328 8.08799 13.32 7.45999C8.86799 6.53199 4.48799 6.696 0.303992 8.712C0.210992 8.72315 0.116992 8.72315 0.023992 8.712Z"
      fill="#FFCE21"/>
  </g>
  <defs>
    <clipPath id="clip0_1_481">
      <rect width="163.612" height="33.372" fill="white"/>
    </clipPath>
  </defs>
</svg>
