<svg xmlns="http://www.w3.org/2000/svg" viewBox="0 0 33 32" fill="none">
  <path
    d="M0.0233534 8.49653C0.0233534 6.48358 -0.0390637 4.51744 0.0428587 2.55521C0.109177 1.02989 1.20148 0.0468195 2.73069 0.0390174C7.41197 0.019512 12.0386 -0.0468061 16.6848 0.0585227C24.565 0.245774 31.3138 6.75666 31.9458 14.4925C32.305 18.4621 31.1713 22.423 28.7663 25.6014C26.3612 28.7798 22.8574 30.9474 18.9396 31.6806C17.789 31.8795 16.6237 31.9812 15.456 31.9849C11.3482 32.02 7.26373 31.9849 3.14031 31.9849C1.08444 31.9849 0.0194523 30.9433 0.0194523 28.8952C-5.30511e-05 24.1866 -5.30507e-05 19.439 -5.30507e-05 14.7109C-0.0201283 13.9653 0.130021 13.2249 0.438985 12.546C0.747949 11.8671 1.2076 11.2676 1.783 10.793C2.35841 10.3184 3.03443 9.98117 3.7597 9.80699C4.48496 9.63281 5.24039 9.62624 5.96858 9.78778C6.61188 9.8727 7.21818 10.1374 7.71779 10.5514C8.21741 10.9655 8.59007 11.5121 8.79295 12.1284C9.20485 13.4236 9.44999 14.766 9.52245 16.1231C9.78382 21.0658 14.8942 23.9877 19.1152 21.5846C22.6925 19.5405 23.4064 14.6446 20.6054 11.3716C18.5963 9.03098 15.9241 7.88796 12.9905 7.2755C8.64861 6.37045 4.37694 6.53039 0.296428 8.49653C0.205728 8.50741 0.114053 8.50741 0.0233534 8.49653Z"
    fill="#FFCE21"/>
</svg>
